<?xml version="1.0" encoding="utf-8"?>
<!-- Generator: Adobe Illustrator 16.0.0, SVG Export Plug-In . SVG Version: 6.00 Build 0)  -->
<!DOCTYPE svg PUBLIC "-//W3C//DTD SVG 1.1//EN" "http://www.w3.org/Graphics/SVG/1.1/DTD/svg11.dtd">
<svg version="1.1" id="Calque_1" xmlns="http://www.w3.org/2000/svg" xmlns:xlink="http://www.w3.org/1999/xlink" x="0px" y="0px"
	 width="432px" height="432px" viewBox="0 0 432 432" enable-background="new 0 0 432 432" xml:space="preserve">
<g>
	<g>
		<path fill-rule="evenodd" clip-rule="evenodd" fill="#CB7B26" d="M154.299,250.109c-0.179-5.665-0.434-11.313-0.396-16.981
			c0.028-4.241,0.44-9.903-4.446-11.638c-3.824,0-9.175-1.015-10.134,3.943c-1.153,5.944-0.824,12.659-0.458,18.672
			c0.344,5.631,0.193,11.137,0.255,16.753c0.062,5.849-4.866,26.796,5.609,26.796c3.471,0,7.521,0.134,9.919-2.911
			c2.458-3.123,1.66-8.277,1.504-11.938c-0.11-2.559-0.277-5.106-0.542-7.654c-0.146-1.381-1.299-4.969-0.167-6.106
			c1.158-1.166,4.744-0.272,6.192-0.216c2.553,0.095,4.327-0.023,6.88-0.017c1.854,0.005,2.55,0.1,4.221,0.094
			c-0.111-2.465,0.074-5.007,0.114-7.481C168.049,251.81,154.374,252.372,154.299,250.109z"/>
		<path fill-rule="evenodd" clip-rule="evenodd" fill="#CB7B26" d="M293.843,259.271c0.099-6.071-0.358-12.173-0.532-18.241
			c-0.147-5.208,1.762-10.641-0.421-15.582c-2.021-4.58-8.313-5.046-12.505-3.337c-3.551,1.451-3.463,5.013-3.661,8.381
			c-0.352,5.956-0.195,11.615,0.982,17.462c0.588,2.929,0,2.827-2.657,2.811c-2.968-0.019-5.92,0.161-8.892,0.088
			c-2.364-0.058-3.391-0.105-5.156-0.144c0,3.235,0,6.47,0,9.705c5.41,0.206,9.806,0.051,15.196-0.566
			c1.264-0.145,2.224-0.39,2.294,1.153c0.126,2.854,0.023,5.733,0.024,8.59c0.002,3.603,0,7.205,0,10.81
			c0.002,1.508-0.321,3.735,0.643,5.069c2.071,2.873,8.093,2.674,10.807,1.469c4.086-1.813,4.168-5.348,4.07-9.36
			C293.887,271.463,293.741,265.389,293.843,259.271z"/>
		<path fill-rule="evenodd" clip-rule="evenodd" fill="#CB7B26" d="M310.979,251.936c-0.077-3.459-0.298-6.914-0.523-10.366
			c-0.218-3.357,0.573-6.43,0.599-9.726c0.017-2.472-0.387-6.458-2.177-8.34c-2.068-2.177-4.639-2.014-7.395-2.014
			c0.997,0-1.219,0.478-1.052,0.344c-5.614,2.102-5.091,6.81-5.345,12.637c-0.303,6.929,0.908,13.677,1.288,20.573
			c0.396,7.221,0.221,14.44,0.284,21.666c0.021,2.342-0.697,6.131,0.988,8.05c1.703,1.937,5.168,2.44,7.595,2.367
			c7.856-0.241,5.874-9.38,5.751-15.071C310.849,265.348,311.124,258.638,310.979,251.936z"/>
		<path fill-rule="evenodd" clip-rule="evenodd" fill="#CB7B26" d="M300.431,221.833c0.33-0.123,0.679-0.238,1.052-0.344
			C300.771,221.688,300.483,221.791,300.431,221.833z"/>
		<path fill-rule="evenodd" clip-rule="evenodd" fill="#CB7B26" d="M322.749,267.174
			C322.199,269.815,322.749,265.862,322.749,267.174c0-5.065-0.662-10.053-0.668-15.138c-0.007-4.775,1.04-10.954-0.254-15.563
			c-0.788-2.806-4.921-4.121-7.557-3.571c-2.745,0.573-2.288,4.625-2.288,6.643c0.004,11.339,0.29,22.678,0.721,34.007
			c0.131,3.51,4.847,7.766,8.252,4.893C323.491,276.306,322.15,270.058,322.749,267.174z"/>
		<path fill-rule="evenodd" clip-rule="evenodd" fill="#CB7B26" d="M130.114,221.458c0.376,0.093,0.729,0.201,1.061,0.313
			C131.121,221.729,130.829,221.637,130.114,221.458z"/>
		<path fill-rule="evenodd" clip-rule="evenodd" fill="#CB7B26" d="M136.885,234.247c-0.422-5.816-0.034-10.539-5.71-12.475
			c0.169,0.128-2.057-0.285-1.061-0.313c-2.755,0.079-5.329-0.008-7.335,2.228c-1.733,1.935-2.021,5.93-1.93,8.4
			c0.121,3.293,1.001,6.344,0.88,9.704c-0.123,3.458-0.243,6.918-0.218,10.377c0.049,6.704,0.52,13.403,0.571,20.113
			c0.043,5.693-1.672,14.885,6.189,14.896c2.426,0.003,5.876-0.601,7.521-2.587c1.629-1.968,0.801-5.733,0.753-8.078
			c-0.145-7.043-0.518-14.077-0.36-21.126C136.345,248.304,137.402,241.338,136.885,234.247z"/>
		<path fill-rule="evenodd" clip-rule="evenodd" fill="#CB7B26" d="M119.299,235.069c-0.133-3.508-4.849-7.763-8.254-4.892
			c-2.535,2.14-1.193,8.389-1.794,11.27c0.549-2.638,0,1.315,0,0c0,5.065,0.663,10.054,0.668,15.136
			c0.006,4.777-1.042,10.957,0.254,15.565c0.79,2.808,4.923,4.122,7.557,3.57c2.745-0.573,2.29-4.622,2.29-6.641
			C120.015,257.738,119.726,246.4,119.299,235.069z"/>
	</g>
	<g>
		<g>
			<polygon fill="#1D1D1B" points="203.781,110.992 190.273,65.608 178.848,65.608 178.848,133.137 189.026,133.137 189.026,89.895 
				203.027,133.137 213.958,133.137 213.958,65.608 203.781,65.608 			"/>
			<path fill="#1D1D1B" d="M250.442,69.539c-3.141-3.159-6.956-4.739-11.443-4.739c-4.417,0-8.204,1.571-11.362,4.712
				c-3.16,3.142-4.741,6.957-4.741,11.444v36.834c0,4.452,1.563,8.258,4.686,11.416c3.124,3.16,6.928,4.739,11.417,4.739
				c4.451,0,8.257-1.57,11.417-4.712c3.158-3.142,4.739-6.956,4.739-11.443V80.956C255.154,76.504,253.584,72.698,250.442,69.539z
				 M244.546,117.683c0,1.615-0.566,2.988-1.696,4.119c-1.131,1.13-2.504,1.696-4.12,1.696s-2.998-0.565-4.147-1.696
				c-1.148-1.131-1.722-2.504-1.722-4.119V80.74c0-1.616,0.574-2.989,1.722-4.12c1.15-1.131,2.531-1.697,4.147-1.697
				s2.989,0.565,4.12,1.697c1.13,1.131,1.696,2.504,1.696,4.12V117.683z"/>
		</g>
		<g>
			<path fill="#1D1D1B" d="M166.382,143.395h-16.048v67.476h10.178v-25.418h5.87c4.416,0,8.176-1.579,11.282-4.738
				c3.105-3.16,4.658-6.965,4.658-11.417v-9.801c0-4.632-1.365-8.437-4.093-11.417C175.285,144.957,171.336,143.395,166.382,143.395
				z M172.467,169.513c0,1.616-0.566,2.999-1.696,4.147c-1.131,1.149-2.505,1.723-4.12,1.723h-6.139v-21.595h6.139
				c1.758,0,3.168,0.539,4.227,1.616c1.059,1.077,1.589,2.496,1.589,4.254V169.513z"/>
			<path fill="#1D1D1B" d="M195.409,143.395l-11.472,67.476h10.598l2.473-15.509h10.626l2.381,15.509h10.702l-11.308-67.476H195.409
				z M198.585,185.453l3.77-26.602l3.769,26.602H198.585z"/>
			<rect x="229.278" y="143.395" fill="#1D1D1B" width="10.178" height="67.476"/>
			<polygon fill="#1D1D1B" points="273.49,143.341 273.49,188.726 259.983,143.341 248.557,143.341 248.557,210.871 
				258.735,210.871 258.735,167.628 272.735,210.871 283.667,210.871 283.667,143.341 			"/>
		</g>
		<g>
			<polygon fill="#1D1D1B" points="203.781,266.459 190.273,221.075 178.848,221.075 178.848,288.604 189.026,288.604 
				189.026,245.362 203.027,288.604 213.958,288.604 213.958,221.075 203.781,221.075 			"/>
			<path fill="#1D1D1B" d="M250.442,225.006c-3.141-3.159-6.956-4.739-11.443-4.739c-4.417,0-8.204,1.571-11.362,4.712
				c-3.16,3.142-4.741,6.957-4.741,11.443v36.835c0,4.452,1.563,8.258,4.686,11.416c3.124,3.16,6.928,4.739,11.417,4.739
				c4.451,0,8.257-1.57,11.417-4.712c3.158-3.142,4.739-6.956,4.739-11.443v-36.835
				C255.154,231.971,253.584,228.165,250.442,225.006z M244.546,273.149c0,1.615-0.566,2.989-1.696,4.12
				c-1.131,1.131-2.504,1.696-4.12,1.696s-2.998-0.565-4.147-1.696c-1.148-1.131-1.722-2.504-1.722-4.12v-36.942
				c0-1.616,0.574-2.988,1.722-4.119c1.15-1.131,2.531-1.697,4.147-1.697s2.989,0.565,4.12,1.697
				c1.13,1.131,1.696,2.503,1.696,4.119V273.149z"/>
		</g>
		<g>
			<path fill="#1D1D1B" d="M164.244,298.109c-4.451,0-8.256,1.571-11.415,4.712c-3.161,3.142-4.74,6.956-4.74,11.443v36.834
				c0,4.416,1.57,8.204,4.712,11.363c3.14,3.159,6.955,4.739,11.442,4.739c4.417,0,8.204-1.563,11.364-4.686
				c3.159-3.123,4.739-6.929,4.739-11.417v-23.587h-16.209v10.231h5.654v13.264c0,1.611-0.575,2.98-1.723,4.108
				c-1.15,1.127-2.531,1.691-4.146,1.691s-2.989-0.565-4.12-1.696c-1.13-1.13-1.696-2.504-1.696-4.119v-36.942
				c0-1.615,0.566-2.997,1.696-4.146c1.131-1.148,2.505-1.724,4.12-1.724s2.997,0.575,4.146,1.724
				c1.148,1.149,1.723,2.531,1.723,4.146v7.916h10.555v-7.7c0-4.452-1.562-8.257-4.685-11.417
				C172.538,299.689,168.732,298.109,164.244,298.109z"/>
			<path fill="#1D1D1B" d="M197.652,298.863l-11.471,67.476h10.598l2.473-15.51h10.627l2.381,15.51h10.701l-11.308-67.476H197.652z
				 M200.83,340.92l3.77-26.602l3.769,26.602H200.83z"/>
			<rect x="231.523" y="298.863" fill="#1D1D1B" width="10.178" height="67.476"/>
			<polygon fill="#1D1D1B" points="275.735,298.809 275.735,344.193 262.229,298.809 250.802,298.809 250.802,366.338 
				260.98,366.338 260.98,323.096 274.981,366.338 285.913,366.338 285.913,298.809 			"/>
		</g>
	</g>
</g>
</svg>
