<?xml version="1.0" encoding="utf-8"?>
<!-- Generator: Adobe Illustrator 21.1.0, SVG Export Plug-In . SVG Version: 6.00 Build 0)  -->
<svg version="1.1" id="Calque_1" xmlns="http://www.w3.org/2000/svg" xmlns:xlink="http://www.w3.org/1999/xlink" x="0px" y="0px"
	 viewBox="0 0 432 432" style="enable-background:new 0 0 432 432;" xml:space="preserve">
<style type="text/css">
	.st0{fill:#C5AD6C;}
	.st1{fill:#1B1B1B;}
	.st2{fill:#020203;}
	.st3{fill:#544842;}
	.st4{fill:#D18E4A;}
	.st5{fill:#998F84;}
	.st6{fill:#668E5E;}
	.st7{fill:#34342F;}
	.st8{fill:#8C4044;}
	.st9{fill:#C1292E;}
	.st10{fill:#7D5D71;}
	.st11{fill:#998675;}
	.st12{fill:#746458;}
	.st13{fill:#EA90A4;}
	.st14{fill:#486D81;}
	.st15{fill:#B98252;}
</style>
<g>
	<g>
		<g>
			<path class="st0" d="M186.5,175.3c0.1,0.4,0.1,0.7,0.2,1.1c0,0.4,0.1,0.8,0.1,1.2c-0.1,1.8-0.1,3.7-0.2,5.4
				c0,1.8-0.1,3.6-0.3,5.3c0,0.8,0,1.6-0.1,2.3c0,0.8-0.1,1.6-0.1,2.3c-0.1,0.6-0.2,1.1-0.4,1.3c-0.2,0.2-0.6,0.4-1.1,0.5
				c-0.2,0.1-0.5,0.1-0.9,0.1c-1.8-0.1-3.6-0.1-5.5-0.1s-3.7-0.1-5.6-0.2c-0.8-0.1-1.3-0.2-1.5-0.4c-0.2-0.2-0.4-0.7-0.6-1.5
				c-0.2-1.6-0.8-2.9-1.9-4.2c-1-1.2-2.2-2-3.6-2.3c-1.4-0.4-2.8-0.2-4.2,0.5c-1.4,0.6-2.6,1.6-3.5,2.9c-0.9,1.2-1.6,2.4-2.2,3.7
				c-0.6,1.3-1,2.6-1.3,4c-1.2,4.6-1.8,9.2-1.8,13.7c0,4.5,0.7,9,2.2,13.5c0.5,1.3,1,2.6,1.7,3.9c0.6,1.2,1.4,2.4,2.4,3.5
				c1.9,2.1,4.1,3.2,6.8,3.1c0.8,0,1.6-0.2,2.4-0.7c0.8-0.5,1.4-1.1,1.9-1.9s0.9-1.5,1.1-2.4c0.2-0.9,0.3-1.7,0.1-2.6
				c-0.3-0.7-0.7-1.1-1.1-1.1c-0.6-0.1-1.1-0.2-1.6-0.2c-0.5,0-1,0-1.4,0c-0.8,0.1-1.5,0.1-2.3,0.2c-0.8,0-1.5,0.1-2.3,0.1
				c-0.9,0-1.5-0.2-1.9-0.5c-0.4-0.3-0.6-0.9-0.7-1.9c-0.1-1.2-0.2-2.4-0.2-3.6c0-1.2,0.1-2.4,0.2-3.6c0.1-0.8,0.3-1.3,0.6-1.6
				c0.3-0.3,0.9-0.5,1.7-0.6c0.6-0.1,1.2-0.1,1.9-0.1c0.6,0,1.2,0,1.9,0H179c0.4,0,0.8,0,1.2,0.1c0.4,0,0.8,0.1,1.2,0.2
				c1.3,0.1,2.1,0.8,2.3,2.1c0.2,0.6,0.3,1.1,0.3,1.5c0.3,4.3,0.2,8.4-0.6,12.4c-0.7,4-2.3,7.8-4.8,11.5c-3,4.3-7.1,6.6-12.2,7
				c-2.3,0.2-4.8,0-7.3-0.6c-2.5-0.6-4.9-1.6-7.2-3c-2.3-1.3-4.3-3.1-6.2-5.2c-1.8-2.1-3.2-4.6-4.2-7.3c-1.6-4.6-2.5-9.3-2.8-14
				c-0.3-4.3-0.4-8.4-0.2-12.6c0.2-4.1,0.8-8.2,1.8-12.2c0.9-3.5,2.2-6.6,4-9.4c1.8-2.8,4.1-5.1,7.1-7.1c5.9-3.8,12-4.6,18.3-2.4
				c0.9,0.3,1.8,0.7,2.6,1.2c0.8,0.5,1.7,1,2.7,1.5c0.1-0.6,0.1-1,0.2-1.4c0-0.4,0.1-0.8,0.1-1.2c0.2-1.5,0.9-2.2,2.1-2.2
				c2.3,0,4.7,0.1,7.1,0.3C185.7,173.5,186.3,174.1,186.5,175.3z"/>
			<path class="st0" d="M245.1,172.4c1.8,0.1,3,0.4,3.6,1.1c0.6,0.6,0.8,1.9,0.7,3.7c-0.1,0.4-0.1,0.7-0.1,1c0,0.3,0,0.6,0,1
				c-0.2,1.5-0.7,2.6-1.4,3.3c-0.7,0.7-1.8,1.1-3.3,1.2c-0.8,0.1-1.5,0.1-2.3,0.1c-0.8,0-1.5-0.1-2.2-0.1c-0.1,0.1-0.2,0.2-0.3,0.2
				c0,0-0.1,0-0.2,0.1c-2.1,4-4.1,8-6.2,11.9c-2.1,3.9-4.2,7.8-6.3,11.8c-0.3,0.6-0.6,1.3-0.7,1.9c-0.1,0.6-0.2,1.3-0.2,2.1
				c0.1,3.6,0.2,7.2,0.3,10.8c0.1,3.6,0.2,7.1,0.3,10.8c0,0.8,0,1.5,0.1,2.2c0,0.7,0.1,1.5,0.2,2.2c0.6,0,1.1,0,1.6,0.1
				c0.5,0,1,0.1,1.6,0.1c2.7,0.2,4,1.7,3.9,4.6c0,0.6,0,1.1,0,1.7c0,0.5-0.1,1.1-0.2,1.7c-0.3,2.1-1.4,3.2-3.4,3.4
				c-2.7,0.3-5.4,0.4-8,0.3c-1.7,0-3.3-0.1-5-0.2c-1.7-0.1-3.4-0.2-5.1-0.3h-0.7c-1.7-0.1-2.8-0.5-3.4-1c-0.5-0.5-0.8-1.7-0.9-3.5
				c0-0.6,0-1.2-0.1-1.8c0-0.6,0-1.2,0.1-1.8c0.1-1.5,0.8-2.4,2.3-2.7c0.7-0.1,1.4-0.2,2.1-0.3c0.7,0,1.5-0.1,2.3-0.3
				c0-0.4,0-0.7,0.1-1.1c0-0.4,0-0.8-0.1-1.2c-0.1-3.7-0.3-7.4-0.5-11.1c-0.2-3.7-0.4-7.4-0.6-11.2c0-0.8-0.1-1.4-0.4-1.9
				c-2.1-4.5-4.1-9.1-6.2-13.5c-2.1-4.5-4.1-9-6.2-13.5c-0.1-0.2-0.2-0.4-0.3-0.6c-0.1-0.2-0.2-0.4-0.3-0.6
				c-0.9-0.1-1.8-0.2-2.6-0.3c-0.8,0-1.7-0.1-2.5-0.2c-1-0.1-1.8-0.4-2.2-0.9c-0.4-0.4-0.7-1.1-0.9-2.1c-0.1-0.8-0.2-1.6-0.3-2.3
				c0-0.8-0.1-1.6-0.1-2.3c0-1.6,0.8-2.5,2.4-2.6c1.9,0,3.8,0,5.7,0s3.8,0,5.7,0.1c1.3,0,2.6,0,3.9,0.1c1.3,0,2.6,0.1,3.9,0.2
				c1.3,0.1,2.2,0.4,2.7,0.9c0.5,0.5,0.8,1.4,0.8,2.8c0,0.5,0,1-0.1,1.5c0,0.5-0.1,1-0.2,1.6c-0.2,1.8-1.2,3-2.9,3.4
				c-0.3,0-0.7,0.1-0.9,0.3c1.2,2.7,2.4,5.4,3.6,8.1c1.2,2.7,2.5,5.5,3.8,8.4c1.3-2.9,2.6-5.7,3.8-8.5c1.2-2.7,2.4-5.5,3.7-8.3
				c-0.3-0.1-0.7-0.1-0.9-0.2c-0.3,0-0.6-0.1-0.8-0.1c-1.4,0-2.2-0.7-2.3-2c-0.1-1-0.1-2-0.1-3.1c0-1.1,0-2.2,0-3.2
				c0.1-0.9,0.7-1.3,1.6-1.5c0.5-0.1,1-0.2,1.5-0.3c0.5-0.1,1-0.1,1.6-0.1h16.2c0.1,0,0.3,0,0.5,0.1
				C244.6,172.4,244.9,172.4,245.1,172.4z"/>
			<path class="st0" d="M314.4,236.4c1,0,1.8,0.2,2.2,0.6c0.4,0.4,0.7,1.2,0.9,2.2c0.2,2.3,0.3,4.6,0.3,6.9c0,1-0.2,1.7-0.6,2.1
				c-0.4,0.4-1.1,0.7-2.2,0.7c-1.5,0.1-3,0.1-4.5,0.1c-1.5,0-3,0-4.5,0.1c-1.4,0-2.7,0-4,0.1c-1.3,0-2.6,0-3.9-0.1
				c-1.6-0.1-2.7-0.4-3.3-1c-0.6-0.6-1-1.7-1.1-3.3c-0.2-2-0.3-3.8-0.2-5.4c0.1-1.4,0.5-2.4,1.1-2.9c0.6-0.5,1.5-0.7,2.8-0.5h1.7
				c0.1-0.4,0.2-1.5,0.3-3.5c0-2,0.1-4.4,0.1-7.2c0-2.8,0-5.9-0.1-9.2c0-3.3-0.1-6.3-0.2-9.2c-0.1-2.9-0.2-5.3-0.3-7.4
				c-0.1-2.1-0.2-3.3-0.4-3.8c-0.2,0.3-0.4,0.6-0.6,0.8c-0.2,0.2-0.4,0.5-0.5,0.8l-8.7,14.7c-1.1,1.9-2.2,2.8-3.3,2.7
				c-1.1-0.1-2.1-0.9-3.2-2.2c-1.4-1.8-2.9-3.7-4.2-5.6c-1.4-1.9-2.8-3.9-4.1-5.9c-0.4-0.6-0.8-1.1-1.1-1.7
				c-0.3-0.5-0.8-1.1-1.2-1.7c-0.1,2.1-0.2,4.3-0.1,6.4c0.1,2.1,0.1,4.3,0.1,6.4c0,2.2,0,4.4,0.1,6.6c0.1,2.2,0.1,4.3,0.1,6.4
				c0.1,2.2,0.1,4.4,0.1,6.5s0,4.3,0.1,6.5c0.6,0.1,1,0.3,1.4,0.3c0.4,0.1,0.9,0.2,1.3,0.3c1.5,0.5,2.3,1.5,2.4,3c0,1,0,2,0.1,2.9
				c0,1,0,1.9-0.1,2.9c-0.1,1.1-0.4,1.9-0.8,2.3c-0.4,0.4-1.1,0.7-2.2,0.8c-1,0.1-1.9,0.1-2.9,0.1c-1,0-1.9,0-2.9,0
				c-1.5,0-3,0-4.5,0.1c-1.5,0-3,0.1-4.5,0.1h-1.6c-1-0.1-1.7-0.4-2.1-0.9c-0.4-0.4-0.7-1.1-0.9-2.1c-0.2-1.9-0.3-3.9-0.3-5.9
				c0.1-1.4,0.3-2.4,0.8-2.8c0.5-0.5,1.4-0.8,2.7-0.9c0.3,0,0.5,0,0.8-0.1c0.2,0,0.5-0.1,0.7-0.1c0.1-0.4,0.1-1.8,0.2-4.4
				c0-2.6,0.1-5.6,0.1-9.3c0-3.6,0-7.5-0.1-11.8c0-4.2-0.1-8.2-0.1-12c0-3.8-0.1-7-0.2-9.7c-0.1-2.7-0.2-4.5-0.3-5.2h-2
				c-1-0.1-1.8-0.4-2.2-0.8c-0.4-0.4-0.7-1.1-0.8-2.1c-0.1-1.2-0.2-2.4-0.2-3.5c0-1.1,0.1-2.3,0.2-3.5c0.1-1.3,0.8-2,2.2-2h5.6
				c1.8,0.1,3.6,0.1,5.4,0.2c1.8,0.1,3.6,0.1,5.4,0.1c1.4,0,2.4,0.7,3.1,2.2c1.2,2.9,2.6,5.7,4.2,8.3c1.7,2.6,3.3,5.2,5,7.8
				c0.3,0.3,0.5,0.6,0.7,0.9c0.2-0.4,0.4-0.8,0.6-1.2c0.2-0.4,0.4-0.8,0.6-1.1c1.4-2.6,2.7-5.1,4-7.7c1.3-2.6,2.7-5.2,4-7.7
				c0.6-1.3,1.6-1.9,2.8-1.9c1.9-0.1,3.7-0.1,5.6,0c1.8,0.1,3.5,0.1,5.3,0.2c1.7,0.1,3.5,0.2,5.3,0.3c2.1,0.2,3.1,1.4,3.2,3.4
				c0.1,1,0.1,2,0.1,3c0,1-0.1,2-0.3,3c-0.2,1.8-1.2,2.8-3.1,2.9c-0.6,0.1-1.1,0.1-1.6,0.1c-0.5,0-1.1,0-1.8,0
				c0.1,4.3,0.2,8.5,0.3,12.8c0,4.3,0.1,8.5,0.2,12.8c0.1,4.3,0.2,8.5,0.3,12.8c0.1,4.3,0.4,8.5,0.7,12.8c0.5,0,0.9,0,1.3,0
				S313.9,236.4,314.4,236.4z"/>
		</g>
		<g>
			<path class="st1" d="M144.1,163c0.9-0.4,1.5-1,2-1.6c0.8-1.2,1.7-2.4,2.4-3.7c2.6-4.6,4.8-9.4,6.9-14.3c0.6-1.4,1.2-2.8,1.8-4.2
				c0.2-0.4,0.2-0.8,0-1.2c-2.5-5.7-2.5-11.6-0.7-17.5c1.1-3.7,2.9-7.1,5.3-10.1c1.1-1.4,2.4-2.6,3.9-3.5c4.3-2.8,9.2-1.7,12.2,1.1
				c1.7,1.6,2.5,3.6,2.7,5.9c0.2,2.2-0.2,4.3-1.2,6.3c-2.6,5.4-6.9,8.9-12.6,10.7c-0.2,0.1-0.4,0.1-0.7,0.2c0.1,0.8,0.3,1.6,0.4,2.4
				c0.5,2.1,1.2,4,2.5,5.8c1.8,2.6,4.1,3.1,6.9,1.7c1.9-0.9,3.6-2.3,5.1-3.7c2.9-2.8,5.3-6.1,7.4-9.5c0.8-1.2,1.4-2.5,2.2-3.8
				c0.4-0.6,0.3-1-0.1-1.6c-2.3-4-4.6-8-6.8-12c-1.7-3.2-3.3-6.5-4.3-10c-0.6-2.2-0.9-4.5-0.5-6.9c0.7-4,3.8-6.9,7.9-7.2
				c4.6-0.4,8.3,1.3,11.1,4.8c2.1,2.6,3.2,5.7,3.7,9c0.6,4.6-0.2,9-1.5,13.4c-0.5,1.6-1,3.1-1.6,4.6c-0.1,0.4-0.2,0.7,0.2,1.1
				c2,2.2,3.9,4.4,5.9,6.6c0.1,0.1,0.2,0.1,0.3,0.2c0.4-0.3,0.8-0.7,1.3-1c2.9-2.5,5.9-5,8.8-7.5c0.5-0.4,0.6-0.8,0.7-1.4
				c0.3-4.6,0.7-9.1,1.1-13.7c0.1-1.2,0.2-2.4,0.4-3.7c-0.4-0.1-0.7-0.1-1.1-0.2c-2.6-0.1-5.2-0.1-7.8,0.1c-0.7,0.1-1.4,0-2.1-0.2
				c-0.5-0.1-0.9-0.5-1-1.1c-0.1-0.6,0.3-1,0.8-1.2c1.3-0.8,2.8-1.1,4.3-1.3c2.1-0.3,4.1-0.4,6.2-0.3c0.4,0,0.8,0,1.3,0
				c0.2-1,0.4-1.9,0.6-2.9c0.3-1.1,0.6-2.2,1-3.3c0.4-1,1-2,1.6-2.9c1.6-2.1,4.5-2.5,6.8-1.2c1.4,0.8,2.1,2.1,2.3,3.7
				c0.2,1.4,0.1,2.8-0.1,4.2c-0.2,1.3-0.3,2.5-0.5,3.9c1.8,0.2,3.5,0.4,5.1-0.4c0.7-0.3,1.5-0.6,2.3-0.5c0.7,0.1,1.3,0.3,1.8,0.7
				c0.6,0.6,0.7,1.5,0,2.1c-0.3,0.3-0.8,0.6-1.2,0.8c-2.1,1.1-4.3,1.6-6.7,1.5c-0.6,0-1.2,0-1.8,0c-0.1,1.1-0.3,2.3-0.4,3.4
				c-0.4,4-0.7,8-1,12.1c-0.3,3.8-0.6,7.7-0.8,11.5c-0.1,2.6,0.1,5.2,0.6,7.8c0.1,0.5,0.3,1,0.5,1.5c0.4,0.8,0.7,1,1.4,0.4
				c0.6-0.4,1.2-0.9,1.7-1.5c0.7-0.7,1.3-1.5,1.9-2.4c1.5-2.2,2.9-4.4,4.4-6.7c0.3-0.4,0.5-1,0.6-1.5c0.8-5.2,2-10.2,3.9-15.1
				c0.6-1.4,1.2-2.8,2.2-3.9c1.8-2.1,4.6-2.7,7.1-1.6c1.6,0.7,2.5,1.9,2.5,3.7c0,1.3-0.2,2.7-0.6,3.9c-0.7,2.6-1.5,5.1-2.1,7.7
				c-1,4.1-1.5,8.3-1.7,12.5c-0.1,2.3-0.3,4.7-0.4,7c-0.1,2.6,0.1,5.3,0.7,7.9c0.2,0.7,0.4,1.4,0.7,2.3c0.3-0.3,0.5-0.4,0.6-0.6
				c0.6-1.1,1.3-2.1,1.9-3.2c4.1-7.5,7.6-15.3,11.1-23c0.2-0.4,0.2-0.9,0.2-1.3c0-2.6-0.1-5.2,0-7.8c0.1-2.4,0.5-4.7,1.1-7
				c0.6-1.9,1.5-3.7,2.8-5.2c1.2-1.5,2.9-1.9,4.7-1.5c1.5,0.3,2.4,1.3,2.8,2.8c0.5,2,0.7,4,0.5,6c-0.3,4.5-0.4,8.9,0,13.4
				c0.1,1.6,0.1,3.1,0.2,4.7c0,0.3,0,0.5,0.1,1c0.2-0.4,0.4-0.6,0.5-0.8c1.3-2.6,2.7-5.3,3.9-8c2-4.2,4.2-8.4,6.9-12.3
				c1.6-2.4,3.4-4.7,5.6-6.6c1.2-1.1,2.5-2.1,4.1-2.7c2.7-1.1,5.3-0.8,7.6,1.1c1.1,0.9,1.8,2.2,2.3,3.6c1,2.5,1.1,5.1,0.9,7.7
				c-0.4,4.3-1.6,8.4-2.7,12.5c-1.3,5-2.4,10-3.1,15.1c-0.3,2.1-0.5,4.2-0.4,6.3c0,0.4,0.1,0.8,0.1,1.4c0.3-0.3,0.5-0.4,0.6-0.6
				c0.5-0.7,1-1.5,1.4-2.2c3-5.2,5.9-10.3,8.9-15.5c0.3-0.5,0.3-0.9,0-1.4c-1.8-3.5-2.3-7.3-2-11.2c0.3-4.1,1.3-8,3.1-11.7
				c1.5-3.2,3.6-5.9,6.4-8.1c2.8-2.1,5.9-3.3,9.4-3.1c2.4,0.1,4.4,1.1,6.2,2.5c2.2,1.7,3.8,3.9,5,6.4c0.4,0.8,0.7,1.7,1.2,2.6
				c0.1-0.2,0.3-0.4,0.4-0.6c1.6-3.5,5.6-3.2,7.6-1.4c0.7,0.6,1.2,1.4,1.6,2.2c0.7,1.7,1.1,3.5,1.1,5.3c-0.1,3.6-0.3,7.2-0.5,10.8
				c-0.1,2.3-0.3,4.7-0.5,7.1c0.2,0,0.3,0,0.4-0.1c4.3-2.5,8.6-5.1,12.5-8.4c3.4-2.9,6.2-6.3,8.3-10.2c0.4-0.7,0.8-1.4,1.2-2.1
				c0.6-1,1.6-1.2,2.7-0.7c1.1,0.5,1.7,1.4,1.4,2.5c-0.1,0.5-0.3,1-0.6,1.4c-2.6,5.1-6.1,9.4-10.5,13c-3,2.4-6.2,4.5-9.5,6.4
				c-1.9,1.1-3.7,2.2-5.6,3.3c-0.7,0.4-0.9,0.8-1,1.6c-0.5,4.8-1,9.6-2,14.4c-0.9,4.4-1.9,8.8-3.8,12.9c-1,2.3-2.2,4.5-3.7,6.5
				c-1.8,2.4-4.1,4.3-6.9,5.5c-3.9,1.6-7.6,1.3-11-1.3c-2.3-1.8-3.5-4.3-4-7.2c-0.7-4.4,0.1-8.6,1.9-12.6c1.8-4,4.3-7.5,7.6-10.4
				c2.8-2.5,5.8-4.5,8.9-6.5c0.6-0.4,0.9-0.8,1-1.5c0.4-5,0.8-9.9,1.3-14.9c0-0.3,0-0.6,0-1c-0.3,0.4-0.5,0.6-0.7,0.8
				c-2,2.3-4.1,4.7-6.1,7c-1.5,1.6-3.1,3.2-4.9,4.4c-1.5,1-3.2,1.8-5,2.1c-2.5,0.4-4.7-0.1-6.8-1.4c-0.3-0.2-0.6-0.4-1-0.6
				c-0.2,0.3-0.4,0.6-0.5,0.9c-2.5,4.6-5,9.2-7.5,13.8c-0.7,1.2-1.5,2.4-2.3,3.5c-0.4,0.6-0.9,1.1-1.4,1.6c-2.3,2.1-5.4,2.4-8,0.6
				c-2-1.5-3.5-3.4-4.2-5.8c-1.1-3.4-1.2-6.9-0.7-10.4c0.7-5.4,2.2-10.6,3.5-15.8c1.1-4.3,2.2-8.7,3.3-13c0.2-1,0.3-2,0.5-3.2
				c-0.6,0.4-1.1,0.6-1.4,0.9c-1.6,1.1-2.9,2.6-4.2,4.1c-2.5,3.2-4.6,6.6-6.3,10.3c-2,4.5-3.9,9.1-5.9,13.6
				c-0.7,1.6-1.5,3.2-2.5,4.8c-1.2,1.9-3.1,2.5-5.2,2.4c-1.6-0.1-3-0.9-4.1-2.1c-1.3-1.3-2.2-2.9-2.8-4.6c-0.2-0.4-0.3-0.9-0.5-1.6
				c-0.2,0.5-0.4,0.8-0.5,1.1c-2.1,4.7-4.2,9.5-6.4,14.1c-1.1,2.3-2.4,4.5-3.7,6.8c-0.5,0.8-1.1,1.6-1.8,2.3c-2,1.9-4.6,2.2-7,0.9
				c-1.1-0.6-2-1.4-2.8-2.4c-2.2-2.8-3.7-6-4.6-9.5c-0.7-2.5-1-5-1.2-7.6c0-0.2,0-0.4-0.2-0.6c-0.2,0.3-0.4,0.6-0.6,0.8
				c-1,1.5-2.1,2.9-3.4,4.2c-1.3,1.3-2.9,2.3-4.7,2.6c-1.7,0.3-3.3,0.1-4.9-0.9c-3-1.9-4.8-4.7-5.9-8c-1.1-3.2-1.6-6.6-1.7-10
				c0-0.4,0-0.7,0-1.1c0-0.1,0-0.1,0-0.2c-0.7,0.3-7.5,6.3-8.4,7.6c0.2,0.3,0.5,0.6,0.7,0.9c2.6,3.2,4.9,6.6,6.5,10.5
				c1.3,3.2,1.9,6.6,1.4,10c-0.6,4-2.8,7.1-5.9,9.6c-3.2,2.5-6.8,3.9-10.8,4.2c-1.6,0.1-3.2-0.1-4.7-0.6c-3.9-1.3-6-4.2-6.7-8.2
				c-0.5-3.2,0.1-6.3,1.3-9.3c1.4-3.5,3.5-6.6,5.9-9.5c0.8-1.1,1.7-2.1,2.6-3.2c-1.2-1.8-2.3-3.5-3.5-5.3c-0.3,0.4-0.4,0.7-0.6,1
				c-1.9,3.4-4,6.6-6.5,9.6c-1.8,2.2-3.8,4.2-6.1,5.8c-2.3,1.6-4.7,2.8-7.5,3.1c-4.7,0.5-8.8-1-12.3-4.1c-0.2-0.2-0.4-0.4-0.6-0.6
				c0,0-0.1,0-0.2-0.1c-0.1,0.2-0.2,0.5-0.3,0.7c-1.5,3.7-2.9,7.5-4.5,11.2c-1,2.3-2.2,4.5-3.3,6.7c-0.7,1.4-1.7,2.6-2.8,3.6
				c-3.6,3.4-8.5,3.1-11.6-0.8c-1.7-2.1-2.6-4.6-3.2-7.2c-0.8-3.4-0.9-6.8-0.8-10.3c0.3-7.7,2.5-15.1,5.1-22.3
				c1.8-5,3.8-10,6.1-14.8c0.4-0.8,0.7-1.6,1-2.5c-0.5-0.1-0.8-0.2-1.1-0.3c-1.5-0.3-3.1-0.1-4.6,0c-2.3,0.2-4.6,0.5-7,0.8
				c-0.1,0.9-0.2,1.7-0.3,2.5c-1.3,10.1-5.2,19.1-11.9,26.8c-2.2,2.5-4.5,4.9-7.3,6.8c-1.6,1.2-3.4,2.1-5.4,2.4
				c-0.6,0.1-1.3,0-1.9-0.1c-0.3,0-0.6-0.2-0.8-0.3c-0.4-0.2-0.7-0.6-0.7-1.1c0.1-0.5,0.5-0.8,0.9-0.9c2.9-0.4,4.9-2.2,6.9-4
				c7.5-6.8,12.5-15.1,14.9-24.9c0.5-1.9,0.8-3.8,1.1-5.7c0.1-0.3,0.1-0.7,0.1-1.2c-0.4,0-0.8,0-1.2,0c-3,0-6-0.5-8.9-1.5
				c-3.1-1.1-5.8-2.7-7.9-5.2c-1.8-2.1-3-4.5-3.2-7.3c-0.2-4.7,2.8-9.1,7.4-10.7c4.7-1.7,10-0.2,13.3,3.7c1.8,2.2,2.9,4.8,3.6,7.5
				c0.8,3,1.1,6,1.1,9.1c0,0.4,0,0.7,0,1.2c0.8-0.1,1.5-0.2,2.2-0.3c2.7-0.3,5.4-0.7,8.1-1c1.4-0.2,2.9,0,4.3,0.3c4.1,1,6,4,5.6,8
				c-0.3,2.9-1.1,5.7-2,8.5c-1.7,5.5-3.5,11-5.2,16.6c-1.4,4.6-2.6,9.3-3.2,14.2c-0.4,3.3-0.4,6.7,0.3,10c0.1,0.4,0.2,0.8,0.4,1.2
				C143.8,162.5,144,162.7,144.1,163z M323.7,124.7c0.4-0.2,0.7-0.4,1-0.6c0.9-0.7,1.9-1.4,2.7-2.2c0.9-0.7,1.6-1.6,2.5-2.4
				c3-2.9,5.9-5.8,8.9-8.6c0.3-0.3,0.6-0.6,0.6-1.2c0-4.4-1.4-8.3-3.9-11.9c-0.7-1-1.6-1.9-2.6-2.6c-1.2-0.8-2.6-1-3.9-0.3
				c-0.9,0.4-1.7,1-2.4,1.7c-1.7,1.6-2.7,3.5-3.4,5.7c-1.5,4.7-1.8,9.5-1.5,14.4c0.1,2.1,0.5,4.3,1.3,6.3
				C323.1,123.6,323.4,124.1,323.7,124.7z M195,114.4c0.4-1.3,0.8-2.5,1.1-3.7c1-3.8,1.6-7.6,1.1-11.6c-0.4-2.6-1.3-5-3.1-6.9
				c-1.2-1.3-2.5-2.2-4.3-2.6c-1.2-0.3-2.3,0-3.3,0.7c-0.8,0.6-1.4,1.5-1.7,2.5c-0.4,1.3-0.3,2.6-0.1,3.9c0.4,2.5,1.5,4.8,2.7,7.1
				c2,3.5,4.3,6.9,6.8,10.1C194.5,114,194.7,114.1,195,114.4z M338,139.5c-0.3,0.2-0.5,0.3-0.7,0.4c-2,1.4-3.9,2.9-5.6,4.7
				c-3.4,3.4-5.7,7.4-6.5,12.2c-0.4,2.1-0.4,4.1,0.3,6.2c0.5,1.4,1.2,2.6,2.6,3.3c1.6,0.9,2.1,0.8,3-0.7c1.1-1.6,1.8-3.3,2.4-5.1
				c2.2-6,3.5-12.3,4.3-18.6C337.9,141.1,337.9,140.3,338,139.5z M199.9,136.6c-0.2,0.1-0.3,0.2-0.3,0.3c-1.8,2.2-3.5,4.6-4.8,7.1
				c-1,1.9-1.7,3.8-2,5.9c-0.3,2.4-0.1,4.8,1.3,6.8c1.2,1.8,2.9,2.2,4.8,1.2c2.1-1.1,3.6-2.7,4.4-5c0.8-2.4,1-4.9,0.6-7.4
				C203.3,142.2,201.6,139.4,199.9,136.6z M129.2,103.7c0-0.4,0.1-0.7,0.1-1c-0.1-1.8-0.1-3.7-0.3-5.5c-0.3-2.6-1-5-2.3-7.3
				c-0.7-1.3-1.9-2.2-3.3-2.6c-2.5-0.8-4.4,0.2-5.2,2.7c-0.2,0.7-0.4,1.4-0.3,2.1c0.1,3.6,1.4,6.6,4.4,8.8c1.9,1.4,4,2.2,6.3,2.8
				C128.8,103.6,128.9,103.6,129.2,103.7z M165.9,128.1c0.2,0,0.3-0.1,0.4-0.1c3.9-1.6,7-4.1,8.9-7.9c0.9-1.8,1.3-3.8,1.1-5.9
				c-0.1-1.2-0.5-2.3-1.2-3.3c-1.1-1.5-2.8-1.8-4.2-0.5c-0.7,0.6-1.4,1.3-1.8,2.2c-0.8,1.3-1.5,2.7-2,4.1c-1.3,3.5-1.5,7.2-1.4,10.9
				C165.8,127.7,165.8,127.9,165.9,128.1z"/>
			<path class="st1" d="M250.6,100.8c-4.3,0-5.7-3.4-5-6.4c0.5-2,1.7-3.3,3.8-3.5c2.1-0.3,3.9,0.5,5.2,2.3c0.7,1,1,2.1,1,3.3
				c0,1.5-0.7,2.6-1.9,3.4C252.8,100.5,251.8,100.8,250.6,100.8z"/>
		</g>
		<g>
			<path class="st1" d="M158.7,281.6c-0.4,4.6-0.8,9.2-1.1,13.8c-0.2,6.1-0.2,12.3-0.4,18.3c0,0.5,0,1,0,1.5c0,1,0.4,1.5,1.3,1.6
				c0.8,0.1,1.7,0,2.4-0.1c1.5-0.5,2.9-1.1,4.4-1.7c3.5-1.1,5.2-0.2,6.3,3.3c1,3,0.8,6.2,0.1,9.3c-0.2,0.7-0.6,1.3-1,2.1
				c-0.5,1-1.3,1.6-2.4,1.6c-0.8,0.1-1.8,0.1-2.5,0c-1.9-0.2-3.9-0.5-5.7-0.7c-0.5,0-1,0-1.5,0.1c-0.8,0.1-1.5,0.8-1.3,2.1
				c0.2,2.3,0.5,4.5,0.7,6.8c0.1,1.8,0.6,3.5,0.6,5.3c0.1,2.3-1.2,4-3.4,4.2c-3.3,0.5-6.7,0.6-9.9,0.2c-3.6-0.5-4.7-3-4.6-5.8
				c0.1-1.9,0.4-3.9,0.6-5.8c0.8-7.6,1.7-15.4,2.3-23.2c1.1-11.8,1.6-23.5,1.2-35.3c-0.1-3.4-0.4-6.8-0.5-10.2
				c-0.1-0.8-0.4-1.7-0.4-2.7c-0.1-0.6-0.2-1.3-0.2-1.9c0.1-1.3,1-2.2,2.2-2.4c1.7-0.4,3.4-0.2,5,0.1c4.4,0.8,8.9,1.5,13.2,1.5
				c2.3,0,4.6-0.4,6.8-0.6c1.5-0.1,2.9-0.4,4.2-0.4c2.7-0.1,4.5,1.2,5.2,3.9c0.8,3.3,0.6,6.7-0.4,9.9c-0.6,2.2-2.3,3.2-4.5,3.2
				c-1.5,0-2.9-0.2-4.2-0.6c-1.7-0.5-3.4-1.1-5.1-1.7c-2.4-0.7-4-1-6.4-0.6C159.4,278.3,159,280,158.7,281.6z M152.8,291.8
				c0-0.7-0.2-1.3-0.5-1.9c-0.2-0.8-0.8-1.2-1.5-1.1c-0.7,0.1-0.8,0.7-1,1.3c0,0.6,0,1.2,0,1.7c0,7.8-0.1,15.4-0.8,23
				c-0.2,2.7-0.5,5.3-0.7,7.9c0,0.6,0,1.1,0,1.6c0.1,0.6,0.5,1,1.1,1.1c0.6,0.1,1-0.2,1.2-0.8c0.2-0.5,0.4-1.1,0.5-1.7
				c1-7.2,1.7-14.3,1.7-21.5C152.8,298.1,152.8,294.9,152.8,291.8z"/>
			<path class="st1" d="M199.5,344.3c-0.1,2.3-1.1,3.6-3.4,4c-3.8,0.8-7.6,1.3-11.5,0c-2.3-0.7-3.6-2.2-3.8-4.5
				c-0.1-2.2,0.1-4.5,0.5-6.7c1.6-9.7,2.7-19.5,3.8-29.2c1.2-9.3,2.7-18.7,5.1-27.8c1-3.5,2.1-7,3.8-10.3c0.6-1.2,1.2-2.3,1.9-3.4
				c2.8-4.1,6.6-5.5,11.3-4.5c6.9,1.3,10.3,5.8,11.6,12.3c0.6,3.2,1.1,6.3,1.5,9.6c0.5,4.4,1,8.7,1.3,13.2c0.5,4,0.8,7.9,1.3,11.9
				c0.5,4.7,1,9.3,1.6,14c0.6,5.1,1.2,10.2,1.8,15.2c0.2,1.9,0.5,3.9,0.6,5.8c0.1,0.7,0,1.5-0.1,2.2c-0.2,1.8-1.2,2.8-2.9,3
				c-3.8,0.4-7.4,0.7-11.2,0.1c-3.2-0.5-4.4-2.3-3.8-5.5c0.4-1.6,0.8-3.2,1.3-4.7c0.2-1.2,0.5-2.5,0.7-3.8c0-0.4,0-0.7,0-1
				c-0.1-2.1-0.4-2.5-2.4-3.2c-2.4-0.7-4.9-0.4-7.3,0c-0.7,0.1-1.2,0.7-1.5,1.5c-0.2,1.2-0.5,2.5-0.6,3.9c0,1.2,0,2.3,0,3.5
				c0.1,0,0,0,0,0C199.2,341.4,199.5,342.9,199.5,344.3z M190.1,315.1c0,2.2,0,4.4,0,6.4c0,0.6,0.1,1.3,0.4,1.8
				c0.1,0.4,0.6,0.6,1,0.7c0.4,0,0.8-0.4,1-0.7c0.2-0.4,0.2-1,0.2-1.5c0.1-1.5,0-2.9,0.1-4.4c0.5-8.2,1-16.5,1.6-24.7
				c0.1-1.7,0.2-3.5,0.2-5.2c0.1-0.6-0.1-1.1-0.7-1.2c-0.6,0-0.8,0.4-1,0.8c-0.4,1-0.6,2.1-0.7,3c-0.5,3.5-0.7,7.2-1.1,10.7
				c-0.4,4.7-0.7,9.5-1.1,14.2C190.1,315.1,190.1,315.1,190.1,315.1z M198.5,311.7c0,1.6,0.2,3.2,0.5,4.7c0.2,1.8,1.2,2.9,3.2,3.2
				c1.9,0.4,4,0.2,6.1,0.1c1.6-0.2,2.5-1.1,2.9-2.5c0.2-0.6,0.4-1.3,0.4-1.9c-0.2-4.7-0.5-9.5-0.8-14.2c-0.4-4.9-0.8-9.8-1.5-14.7
				c-0.5-3.5-1.2-7.2-1.9-10.7c-0.2-1.2-0.7-2.4-1.5-3.4c-0.8-1.3-2.1-1.2-2.8,0.2c-0.5,1.1-0.8,2.1-1.2,3.2
				c-1.3,4-1.9,8.1-2.3,12.3c-0.6,5.9-1.1,12-1,18.1C198.5,307.8,198.4,309.7,198.5,311.7z"/>
			<path class="st1" d="M245.9,325.3c0.5,1.2,0.8,2.4,1.8,3.4c1.1,1.2,2.3,2.2,4.1,2.3c1,0.1,2.1,0.2,3.2,0.2
				c1.1,0.1,2.1-0.2,2.9-0.8c1-0.6,1.9-1.1,3-1.5c2.9-1,5.7,0.1,7.4,2.7c1.5,2.2,2.2,4.7,2.5,7.4c0.1,0.7,0.2,1.5,0.4,2.1
				c0.2,3.9-1.8,6.1-4.7,6.9c-1.6,0.4-3.2,0.5-4.7,0.7c-4.9,0.7-9.7,0.6-14.6-0.5c-1.8-0.4-3.6-1-5.3-1.7c-2.7-1.2-4.7-3-6.3-5.6
				c-2.9-5-5-10.2-5.8-16c-0.4-1.9-0.8-3.9-0.8-5.8c-0.1-3.8-0.2-7.6,0-11.5c0.5-7.6,1.8-15,4.6-22.3c2.2-5.9,5.2-11.3,9.3-16.1
				c4.2-5,9.6-7.4,15.9-7.5c0.6-0.1,1.2,0,1.7,0c4.6,0.7,7,3,7.8,7.6c0.5,3.3,0,6.4-1.6,9.3c-1.3,2.4-3.5,3.2-5.9,2.9
				c-1,0-1.8-0.2-2.7-0.4c-3-0.7-5.5,0.4-7.4,2.5c-1.3,1.5-2.4,3-3.2,5c-0.7,2.3-1.5,4.6-2.2,6.9c-1.2,4.9-1.5,9.8-1.3,16.9
				C244,315.3,244.2,320.4,245.9,325.3z M234.9,312.8c0,3.8,0.7,7.4,2.1,10.9c0.4,1,1,1.3,1.6,1.2c0.8-0.2,1.1-1,0.8-1.9
				c0-0.2-0.1-0.5-0.1-0.7c-0.5-2.5-1.1-5.1-1.3-7.8c-0.4-7.8,0.6-15.3,3.2-22.7c0.4-1,0.7-1.9,1-3c0.1-0.5,0.2-1.1-0.4-1.3
				c-0.6-0.2-1,0.1-1.3,0.5c-0.1,0.2-0.4,0.5-0.5,0.7c-0.6,1.3-1.2,2.5-1.7,3.9c-2.2,6.2-3.3,12.6-3.3,19.2
				C234.9,312.1,234.9,312.4,234.9,312.8z"/>
			<path class="st1" d="M295.4,309.5c0.1,1.6,0.5,3,1.6,4.2c0.7,0.8,1.6,1.3,2.7,1.2c1.2-0.2,2.3-0.5,3.5-0.7
				c0.7-0.2,1.5-0.5,2.2-0.7c2.7-0.6,5,0.5,5.7,3.2c1.2,3.5,1.1,7.3-0.1,10.8c-0.7,1.9-2.5,2.7-4.4,2.7c-1.7,0.1-3.4-0.2-5-0.4
				c-0.8-0.1-1.6-0.2-2.3-0.4c-1.8-0.1-3.2,1-3.4,2.7c-0.4,1.9,0.5,3.3,2.3,3.8c1.8,0.5,3.5,0.2,5.2-0.2c1.7-0.4,3.3-1,4.9-1.5
				c0.6-0.1,1.3-0.4,1.9-0.5c1.9-0.2,3.5,0.5,4.5,2.2c1.7,2.9,1.1,8.4-1.3,10.9c-1.8,1.8-4.1,2.5-6.7,2.4c-2.7-0.1-5.3-0.5-8-0.7
				c-3.3-0.5-6.6-0.2-9.8,0.1c-1.1,0.1-2.2,0.2-3.3,0.2c-1.3,0.1-2.7-0.2-3.9-0.8c-2.2-1.1-3.6-2.8-3.6-5.3c0-2.9,0.1-5.7,0.4-8.6
				c1.1-9.8,2.1-19.7,1.8-29.6c-0.1-5.5-0.1-11-0.1-16.5c0-4.5-0.6-8.9-1.1-13.3c-0.2-2.2-0.4-4.4-0.2-6.6c0.2-3.4,2.1-5.5,5.3-5.9
				c3.3-0.5,6.6-0.4,9.8,0.2c5.6,0.8,11.2,1.2,16.7,1.1c2.4,0,3.4,0.8,3.5,3.2c0.1,1.6,0.1,3.3-0.2,5c-0.6,3.3-2.8,5.1-6.2,5.3
				c-1.6,0-3.3-0.2-5-0.5c-1.2-0.1-2.5-0.5-3.9-0.5c-1.9,0-2.8,0.7-3.2,2.7c-0.4,1.8-0.6,3.9-0.6,5.8c-0.1,4-0.1,12.3-0.2,12.3
				C295.1,300.9,295.3,305.3,295.4,309.5z M288.7,297.9c-0.1-2.3-0.2-4.6-0.5-7c0-0.4-0.1-0.8-0.4-1.2c-0.1-0.5-0.6-1-1.1-0.7
				c-0.5,0.1-0.7,0.5-1,0.8c-0.1,0.4-0.1,0.7-0.1,1c-0.1,0.8-0.1,1.7-0.1,2.4c0,6.4-0.1,12.7-0.2,19.2c0,3-0.4,6.1-0.5,9.1
				c-0.1,1.2-0.1,2.4-0.1,3.6c0,0.6,0.4,1.1,1.1,1.1c0.6,0.1,1.1-0.2,1.2-0.8c0.2-0.7,0.5-1.6,0.6-2.3c0.7-6.6,1.1-13.2,1.1-19.8
				C288.7,301.4,288.9,299.7,288.7,297.9z"/>
		</g>
	</g>
	<g>
		<path class="st1" d="M366.7,183.7l-22.2-8.7c-0.4-0.1-0.7,0-0.9,0.4l-4.4,11.2c-0.1,0.4,0,0.7,0.4,0.9l5.3,2.1l-10.4,26.4
			l-5.3-2.1c-0.4-0.1-0.7,0-0.9,0.4l-4.4,11.2c-0.1,0.4,0,0.7,0.4,0.9l22.2,8.7c0.4,0.1,0.7,0,0.9-0.4l4.4-11.2
			c0.1-0.4,0-0.7-0.4-0.9l-5.4-2.1l10.4-26.4l5.4,2.1c0.4,0.1,0.7,0,0.9-0.4l4.4-11.2C367.2,184.2,367.1,183.8,366.7,183.7z"/>
		<path class="st1" d="M131.2,228.2c-0.2-4.3-0.6-7.8-1.2-11c-0.8-4.5-2.1-8.4-3.9-12c-1.7-3.3-3.7-5.9-6.1-8
			c-0.2-0.2-0.2-0.3-0.2-0.5c0.3-2.2,0.3-4.4,0.2-6.5c-0.2-3.2-0.8-6-1.8-8.6c-1.9-4.8-5-8.3-9.3-10.5c-4.4-2.3-9.3-3-14.6-2.3
			c-4.3,0.6-8.4,2.2-12.5,4.7c-6.2,3.8-11.8,10.8-14.7,18.4c-0.6-0.2-1.3-0.2-1.9,0.1c-0.8,0.3-1.4,0.9-1.7,1.6l-9.2,20
			c-0.3,0.7-0.4,1.6-0.1,2.3c0.3,0.8,0.9,1.4,1.6,1.7l2.6,1.2c0.7,0.3,1.6,0.4,2.3,0.1c0.8-0.3,1.4-0.9,1.7-1.6l9.2-20
			c0.3-0.7,0.4-1.6,0.1-2.3c-0.3-0.7-0.7-1.2-1.3-1.6c1.1-2.9,2.7-5.8,4.7-8.6c3.4-4.7,7.7-8.2,12.7-10.4c5.1-2.2,10-2.8,14.8-1.8
			c3,0.6,5.5,1.8,7.6,3.6c2.4,2,4.1,4.6,5.1,7.9c1,3.2,1.4,6.7,1.1,10.6l-0.1,0c-2.9-1.5-5.7-2-8.7-1.5c-2,0.3-4,1-6,2.1
			c-2.3,1.3-4.4,2.9-6.4,4.9c-3.4,3.5-6.6,7.6-9.6,12.5c-0.7-0.3-1.5-0.3-2.2,0c-0.8,0.3-1.4,0.9-1.7,1.6l-9.2,20
			c-0.3,0.7-0.4,1.6-0.1,2.3c0.3,0.8,0.9,1.4,1.6,1.7l2.6,1.2c0.7,0.3,1.6,0.4,2.3,0.1c0.8-0.3,1.4-0.9,1.7-1.6l9.2-20
			c0.6-1.3,0.2-2.9-1-3.7c1.5-2.5,3-4.7,4.5-6.6c1.7-2.2,3.9-4.8,6.5-6.9c1.9-1.5,3.7-2.6,5.5-3.3c2.2-0.9,4.3-1,6.4-0.6
			c1.4,0.3,2.8,0.9,4.1,1.8c0,0,0,0.1,0,0.1l-0.2,1.2c-0.2,1-0.4,2.1-0.7,3.1c-1,4.4-2.5,8.9-4.7,14.2c-2.5,6.1-5.2,11.8-8.5,18.7
			c-1.1,2.4-2.3,4.7-3.4,7.1c-2.7,5.5-5.4,11.3-8.1,16.9c-4.2,8.9-7.5,17-10,25c-1.8,5.6-4,13.1-4.7,20.9c-0.4,4.4-0.4,8.3,0.2,11.9
			c0.5,3,1.4,5.5,2.6,7.8c1.3,2.3,3,4,5,5.1c1.6,0.9,3.3,1.4,5.1,1.5c1.5,0.1,3.1-0.2,4.7-0.7c2.2-0.7,4.4-1.9,6.8-3.8
			c3.3-2.6,6.4-5.8,9.3-9.9c3.1-4.3,5.8-9.3,8.4-15.3c4.4-10.3,7.8-21.9,10.2-35.7c0.5-2.8,0.9-5.6,1.3-8.3l0.2-1.5
			c0.6-4.2,1.1-8.5,1.4-12.9C131.3,237.9,131.4,232.9,131.2,228.2z M127.7,234.5c0,3.7-0.2,7.3-0.6,10.9c-0.4,3.8-0.8,7.8-1.4,11.9
			c-0.5,3.5-1,7.1-1.7,10.6c-2.4,13.2-5.7,24.4-10.1,34.2c-2.4,5.4-5,10-7.8,13.9c-2.8,3.9-5.8,7-9,9.4c-1.8,1.3-3.4,2.2-5,2.8
			c-1.9,0.7-3.7,0.8-5.5,0.3c-1.9-0.5-3.4-1.6-4.7-3.4c-1-1.4-1.8-3.1-2.4-5.3c-0.5-1.9-0.8-4-0.9-6.3c-0.2-4.2,0.2-8.7,1.2-13.8
			c1.3-6.6,3.4-13.4,6.6-22.1c3-8,6.6-15.7,9.7-22.1c1.7-3.5,3.4-7,5.1-10.5c2.1-4.4,4.2-8.8,6.3-13.2c2.2-4.6,5.1-10.8,7.4-17.1
			c1.7-4.6,2.9-8.8,3.8-12.9l0.1-0.3c0.2,0.2,0.4,0.4,0.6,0.6c1.9,2.2,3.5,5,4.8,8.4c1.3,3.5,2.2,7.3,2.7,11.6
			C127.5,225.6,127.7,229.6,127.7,234.5z"/>
		<path class="st1" d="M368.2,275.9c-0.9-3.8,2.4-5.8,2.4-13.9c0-9.1-10.4-12.6-20-12.6c-9.7,0-21.7,2.4-21.7,11.9
			c0,8.5,3.4,11.2,2.4,14.9c-3.9,4.4-6.3,10.2-6.3,16.5c0,13.7,11.1,24.9,24.9,24.9s24.9-11.1,24.9-24.9
			C374.7,286.2,372.3,280.3,368.2,275.9z M350,291.8c-4.9,0-8.8-2.4-8.8-5.4c0-3,4-5.4,8.8-5.4c4.9,0,8.8,2.4,8.8,5.4
			C358.8,289.3,354.8,291.8,350,291.8z M361.8,267.1c-1.1,1.1-2.5,1.7-4.2,1.7H342c-3.3,0-5.9-2.7-5.9-5.9c0-1.6,0.7-3.1,1.7-4.2
			c1.1-1.1,2.5-1.7,4.2-1.7h15.7c3.3,0,5.9,2.7,5.9,5.9C363.6,264.5,362.9,266,361.8,267.1z"/>
	</g>
</g>
</svg>
