<?xml version="1.0" encoding="utf-8"?>
<!-- Generator: Adobe Illustrator 20.1.0, SVG Export Plug-In . SVG Version: 6.00 Build 0)  -->
<svg version="1.1" id="Calque_1" xmlns="http://www.w3.org/2000/svg" xmlns:xlink="http://www.w3.org/1999/xlink" x="0px" y="0px"
	 viewBox="0 0 432 432" style="enable-background:new 0 0 432 432;" xml:space="preserve">
<style type="text/css">
	.st0{fill:#C9973C;}
	.st1{fill:#1D71B8;}
	.st2{fill-rule:evenodd;clip-rule:evenodd;fill:#CB9A3E;}
	.st3{fill:#CB9A3E;}
	.st4{fill:none;stroke:#C9973C;stroke-width:1.8;stroke-miterlimit:10;}
	.st5{fill-rule:evenodd;clip-rule:evenodd;fill:#C9973C;}
	.st6{fill:#CC7B26;stroke:#C9973C;stroke-miterlimit:10;}
	.st7{fill:#E94871;}
	.st8{fill-rule:evenodd;clip-rule:evenodd;fill:#C9973D;}
	.st9{fill:#C9973D;}
	.st10{fill:#CC7B26;}
</style>
<g>
	<g>
		<g>
			<path d="M164.6,87.6c-0.5-0.1-1.2,0.2-1.2,0.8l-9,40.2l-5.2-30.8c-0.1-0.6-0.6-1-1.2-0.9c-0.6-0.1-1.2,0.3-1.2,0.9l-5.3,31.6
				l-9.2-41c-0.1-0.6-0.7-0.9-1.2-0.8c-0.5,0.2-0.9,0.7-0.8,1.2l9.8,44.4c0.2,0.5,0.5,0.8,1,0.8c0.1,0,0.2,0,0.2,0
				c0.1,0,0.2-0.1,0.2-0.1c0.1,0,0.2,0.1,0.2,0.1c0,0,0.1,0,0.2,0c0.5,0,0.9-0.4,1-0.8l5.1-30l5.1,30c0.1,0.5,0.5,0.8,1,0.8
				c0.1,0,0.2,0,0.2,0h0.1c0.1,0,0.2,0,0.2,0c0.5,0,0.9-0.3,1.1-0.8l9.8-44.4C165.5,88.3,165.2,87.8,164.6,87.6z"/>
			<path d="M183.5,88.5c-0.1-0.5-0.6-0.9-1.2-0.8c-0.5,0-1,0.3-1.1,0.8l-9.9,44.3c-0.1,0.6,0.2,1.2,0.8,1.3c0.1,0,0.2,0,0.2,0
				c0.5,0,0.9-0.3,1-0.8l5-22.4h7.9l5,22.4c0.2,0.5,0.5,0.8,1.1,0.8c0.1,0,0.2,0,0.2,0c0.5-0.2,0.9-0.7,0.8-1.3L183.5,88.5z
				 M178.8,108.9l3.5-15.8l3.5,15.8H178.8z"/>
			<path d="M205.1,101.2l10.2-11.3c0.4-0.4,0.3-1.1-0.1-1.5c-0.5-0.4-1.1-0.4-1.5,0.1l-12.4,13.8V89.2c0-0.5-0.5-1.1-1-1.1
				c-0.6,0-1.1,0.5-1.1,1.1v44c0,0.6,0.5,1.1,1.1,1.1c0.5,0,1-0.5,1-1.1v-27.8l2.2-2.4l13.7,30.7c0.2,0.4,0.5,0.6,0.9,0.6
				c0.2,0,0.3-0.1,0.5-0.1c0.5-0.3,0.8-0.9,0.5-1.4L205.1,101.2z"/>
			<path d="M240.5,90.2c0.6,0,1.1-0.5,1.1-1.1c0-0.6-0.5-1.1-1.1-1.1h-14.1c-0.1,0-0.1,0.1-0.2,0.1l-0.1-0.1c-0.6,0-1.1,0.5-1.1,1.1
				v44c0,0.6,0.5,1.1,1.1,1.1l0.1-0.1c0.1,0,0.1,0.1,0.2,0.1h14.1c0.6,0,1.1-0.5,1.1-1.1c0-0.5-0.5-1.1-1.1-1.1h-13.3v-21.2h5.4
				c0.6,0,1.1-0.5,1.1-1c0-0.6-0.5-1.1-1.1-1.1h-5.4V90.2H240.5z"/>
			<path d="M277.6,89.5c0-0.6-0.5-1.1-1-1.1c-0.6,0-1.1,0.5-1.1,1.1v33.2c0,0.1,0.2,5.5-2.3,8.2c-0.9,0.9-2.1,1.4-3.5,1.4
				c-1.5,0-2.5-0.5-3.5-1.4c-2.5-2.7-2.4-8.1-2.4-8.2V89.4c0-0.6-0.5-1.1-1-1.1c-0.6,0-1.1,0.5-1.1,1.1v33.2c0,0.3-0.2,6.4,2.9,9.7
				c1.3,1.3,3,2,5,2c2,0,3.6-0.7,4.9-2c3.2-3.3,3-9.4,2.9-9.6V89.5z"/>
			<path d="M301.7,101.9c0-7.7-6.2-14-13.9-14h-4.4v28V133c0,0.6,0.5,1.1,1.1,1.1c0.5,0,1-0.5,1-1.1v-17.1h2.3
				C295.5,115.9,301.7,109.6,301.7,101.9z M287.8,113.8h-2.3V90.1h2.3c6.5,0,11.8,5.3,11.8,11.8
				C299.6,108.5,294.3,113.8,287.8,113.8z"/>
			<path d="M301.5,133.6c-0.2-1.1-1.1-1.9-2.2-1.9c-1.2,0-2.2,1-2.2,2.2c0,1.2,1,2.2,2.2,2.2c0.2,0,0.3,0,0.5-0.1
				c-0.2,0.5-0.5,0.9-0.6,1.1c-0.3,0.1-0.5,0.4-0.5,0.8c0,0.4,0.3,0.7,0.7,0.7c1.1,0,1.8-1.8,2.1-2.5
				C301.7,134.9,301.5,133.7,301.5,133.6C301.5,133.6,301.5,133.6,301.5,133.6z"/>
		</g>
		<g>
			<path d="M194.3,184.7c-2.8,7.6-6.9,8.9-9,7.7c-2-1.1-2.6-3.5-2.8-5.9c5.9-1.5,8.8-10,4.4-12.2c-7.1-3.4-11.7,3.7-11.9,10.7
				c-3,7.9-8,18.4-9.8,17.9c-2.5-0.6-4.1-6.7-5.3-10.9l0.8-1.1c1.5-0.1,2.9-1.1,4.2-2.4c5.8-5.6,2.7-9.6-1.1-6.7
				c-1,0.8-2.6,2.9-4.3,5.4c-1-0.8-2.2-1.1-3,0.4c-0.4,0.7-0.3,2.1,0.1,3.8c-2.1,4.4-2.1-3.3-1.5-8.7c6-7,14.9-18.8,11.3-28.4
				c-1.8-4.9-7.8-6.6-12.2-2.3c-5.3,5.2-6.6,19.9-6.4,32.5c-0.9,2.6-4.5,10.2-6.2,11.7c-1.1,1-2.8-0.6-2.2-12.6c4-6.3-2.4-8-5.4-4.3
				c-1.7,2.3-1.5,4.5-1.6,6.7c-2.8,3-4.4,5.4-4.1-2c0.5-11.6,4.7-11.6,2.9-6.2c-0.2,0.7,0.3,1.6,1.1,1.8c1.5,0.5,3.4-5.2,0.7-7.5
				c-6.9-4.5-12.3,4.8-12.3,12.5c0,0.1-0.1,0.1-0.1,0.2c-3.1,8.1-4.4,11.1-6.6,15.8c-8.3,17.4-1.6-30-1.2-32c1-5.2-3.3-8.3-6.9-4.5
				c-2.1,1.8-6.3,11.7-9.3,21c-2.5,7.4-5.5,16.1-3.7,3c2.4-16.6-1.6-17.2-4.6-13.1c-2.2,3.1-3.4,5.6-6.6,11.8c-4.1,8-2.4,2.3-2-6.1
				c0-3.4-7.5-4.8-7.5-2.1c-0.2,3.4-1.1,18.3,4.1,19c3.7,0.5,6.9-7.1,7.9-9.2c6.7-13.6-4.1,14.2,7.5,14.1c1.1,0,2.1-1.5,2.8-2.5
				c2.9-5.4,5.9-16.5,8.3-22.7c6.4-16.4-8,30.3,7,33.6c3.9,0.9,9.2-12.9,12.1-20.9c0.9,1.7,2.3,2.9,4.3,3.3c2.1,0.4,4.3-1.1,6.6-3.4
				c0.5,6.9,2,13.1,6.7,13.1c3.6,0,6.6-6,8.7-11c0.2,3.3,0.5,6.2,0.8,8.4c0.7,5.3,5.9-1.8,8.2-4.6l0.7-0.9
				c2.6,9.2,3.6,13.9,7.4,13.3c3.4-0.5,7.7-9.5,10.8-17.5c1.2,3.1,3.6,5.4,7.3,5.7c5.7,0.5,10.3-1.8,13.4-10.4
				C197.4,184.2,194.7,183.4,194.3,184.7z M182.7,182.3c0.5-8.3,6.3-2.5-0.1,1.1C182.6,182.9,182.6,182.7,182.7,182.3z M160.9,153.9
				c7.7,3.6-1.6,19.8-5.7,23.7C155.6,173.6,155.8,151.6,160.9,153.9z"/>
			<path d="M266.3,171.7c0.6-6.6-6.7-6.7-7.6-1C258.6,178,265.8,176.5,266.3,171.7z"/>
			<path d="M358.1,184.2c-3.7-0.1-7.8,0.6-12.6,2.1c-3.4-2.2-5.5-3.4-6.8-4.9c3.2-9,5.6-18.1-0.7-18.6c-5.6-0.5-8.2,4.6-8.3,10
				c-0.1-0.1-0.3-0.1-0.5-0.2c-7.6-2.4-10.4,9-9.4,16.8c-6.1,6.7-6.4,0.8-4.8-5.7c1.8-7.2,6.3-15.9,12.9-14.6c0.8,0.2,1.6-0.2,1.9-1
				c0.2-0.8-0.2-1.6-0.9-1.9c-13.7-3-20.9,8.8-21.7,19.2c-2.6,6.8-5.4,14.8-7.9,17.6c-4.6,5.3-2.8-7.4-2.7-9.7
				c0.5-5.8,5.4-28.3,0.4-30.9c-3.7-2-6.3,2.6-7.5,5.4c-1.6,3.8-4.6,12.1-7.5,18.4c-0.9,2.1-2.1-3.1-1.4-9.3
				c-0.3-2.1-7.6-1.9-7.6,0.6c0,0.8-0.1,4.3,0.3,8.1c-5.7,15-9.2,15.8-9,13.2c-0.5-3.6,0.8-14.8,1.1-17.5c0.4-2-6.8-3.3-7.2-1.4
				c-0.1,0.7-0.3,2.4-0.5,4.7c-0.1,0.1-0.1,0.2-0.2,0.3c-4.4,13.2-15.9,40.6-10,12.3c2.5-11.8,2.9-18.5-2.6-19.8
				c-3.9-1-9.3,5.8-11.5,12.3c-0.7,2.2-0.2-6.1,0.2-9.7c6.3-9.1,11.9-18.9,11.7-29.3c-0.1-3.2-1.4-8.3-5.7-8.1
				c-11,0.5-13.7,25-13.9,43.6c-5.5,15.4-10.2,24.1-8.4,2.7c0.5-6.4,0.6-19.3,0.6-26.4c3.4,0.1,6.4-0.5,8.7-3.5
				c0.5-0.7,0.2-1.7-0.5-2.1c-0.7-0.4-1.6-0.2-2.1,0.5c-1.4,1.9-3.8,2.3-6.3,2.2c-0.1-2.1-0.2-4.1-0.5-6c-0.3-2-9.3-0.5-9,1.5
				c0.2,1.1,0.3,2.3,0.4,3.4c-2.8-0.2-5.7,0.1-7.2,2.7c-0.4,0.8,0,1.7,0.8,2c0.8,0.4,1.6,0,2-0.8c0.5-0.8,2.5-0.9,4.7-0.8
				c0.5,7.1,0.2,20.2,0.2,27c0,3.1-1.7,21.8,6.4,20.8c4.2-0.5,7.7-8,10.2-14.8c0.2,6.5,0.6,11.2,0.9,12.1c0.8,2.2,4.7-0.8,5.1-2
				c2.8-8.8,5.5-16.9,7.8-19.5c7.7-8.5-6.6,34.4,3,34.2c5.8-0.1,11.3-14.2,14.8-24.4c0.1,5.6,1.1,10.8,4.4,11.8
				c5.2,1.6,9.6-7.8,12.8-15.8c1,3.1,2.6,5.5,5.5,5.3c0.8-0.1,1.1-0.8,1.8-2.1c2.1-4.1,5-11.3,7.1-16.9c8.7-22.6-8.4,36.8,9.3,32.1
				c3.2-0.9,7.1-10.2,9.7-16.9c1.7,6,7.3,7.1,12.6,0.3l0.5,4.4c-18.1,9.9-10,30.6-1.1,28.9c8.9-1.7,9.1-17.5,8.7-23.4l-0.5-5.7
				c1.4-0.9,6.7-4.7,8.5-9.6c0.4-0.7,0.7-1.4,0.9-1.8c0.8,0.6,2.5,1.4,3.8,3.2c-14.9,9.5-9.7,34.8,2.1,29.9
				c11.9-4.9,13.6-20.5,5.4-29.8c3.1-0.9,6.1-1.7,10.6-1.9C360.7,186.9,360.1,184.3,358.1,184.2z M239.7,145.7
				c1.9-0.7,2.5,4.1,2.5,5.1c0.2,8.3-5.3,17.3-8.7,23C234,168.6,235.3,147.2,239.7,145.7z M318.3,222.8c-6.1-0.7-7.8-15.7,3-21.7
				C321.3,201.4,323.4,223.4,318.3,222.8z M327.9,175.3c0.4,0.8-0.3,2.6-1.5,4.6C326.4,176.8,326.9,174.8,327.9,175.3z M327.3,192.9
				c-0.2-1.7-0.7-6.1-0.8-7.7c1.6-2.2,3-4.7,3.9-6.9c0.8,2.5,2.1,4.6,3.9,5.7c-0.1,0.3-0.2,0.6-0.3,0.9c0,0,0,0.1-0.1,0.1
				C332.5,188.9,329.7,191.6,327.3,192.9z M335.5,179.6c-1.8-1.6-2.6-14.2,1.6-13.6C339.8,166.4,337.2,173.3,335.5,179.6z
				 M342.3,214.8c-6.7,4.7-12.9-14.5-0.2-23C348.5,203.7,345.5,212.5,342.3,214.8z"/>
		</g>
		<g>
			<path d="M152.5,228c-0.6,0-1.1,0.5-1.1,1.2v21.5h-14.1v-21.5c0-0.7-0.5-1.2-1.1-1.2c-0.7,0-1.2,0.5-1.2,1.2v48
				c0,0.7,0.5,1.2,1.2,1.2c0.6,0,1.1-0.5,1.1-1.2V253h14.1v24.3c0,0.7,0.5,1.2,1.1,1.2c0.7,0,1.2-0.5,1.2-1.2v-48
				C153.7,228.5,153.2,228,152.5,228z"/>
			<path d="M173.3,228.4c-0.1-0.6-0.7-1-1.3-0.9c-0.5,0-1.1,0.3-1.2,0.9L160,276.7c-0.1,0.7,0.3,1.3,0.9,1.4c0.1,0,0.2,0,0.3,0
				c0.5,0,1-0.3,1.1-0.9l5.5-24.4h8.6l5.5,24.4c0.2,0.6,0.6,0.9,1.2,0.9c0.1,0,0.2,0,0.3,0c0.6-0.2,1-0.8,0.8-1.4L173.3,228.4z
				 M168.3,250.5l3.9-17.3l3.8,17.3H168.3z"/>
			<path d="M195.3,227.7h-4.8v30.6v18.6c0,0.7,0.5,1.2,1.2,1.2c0.6,0,1.1-0.5,1.1-1.2v-18.6h2.5c8.4,0,15.2-6.9,15.2-15.3
				C210.5,234.6,203.7,227.7,195.3,227.7z M195.3,255.9h-2.5V230h2.5c7.1,0,12.9,5.8,12.9,12.9C208.2,250.1,202.4,255.9,195.3,255.9
				z"/>
			<path d="M221.6,227.7h-4.8v30.6v18.6c0,0.7,0.5,1.2,1.2,1.2c0.6,0,1.1-0.5,1.1-1.2v-18.6h2.5c8.4,0,15.2-6.9,15.2-15.3
				C236.7,234.6,229.9,227.7,221.6,227.7z M221.6,255.9H219V230h2.5c7.1,0,12.9,5.8,12.9,12.9C234.5,250.1,228.7,255.9,221.6,255.9z
				"/>
			<path d="M259.8,230.2c0.7,0,1.2-0.5,1.2-1.2s-0.5-1.2-1.2-1.2h-15.4c-0.1,0-0.1,0.1-0.2,0.1l-0.1-0.1c-0.7,0-1.2,0.5-1.2,1.2v48
				c0,0.7,0.5,1.2,1.2,1.2l0.1-0.1c0.1,0,0.1,0.1,0.2,0.1h15.4c0.7,0,1.2-0.5,1.2-1.2c0-0.6-0.5-1.2-1.2-1.2h-14.5v-23.1h5.9
				c0.7,0,1.2-0.5,1.2-1.1c0-0.7-0.5-1.2-1.2-1.2h-5.9v-20.3H259.8z"/>
			<path d="M284.8,227.9c-0.6,0-1.1,0.5-1.1,1.2v41l-14-41.8c-0.2-0.6-0.8-0.9-1.4-0.7c-0.4,0.1-0.8,0.5-0.8,0.9
				c-0.1,0.2-0.2,0.3-0.2,0.6v48c0,0.6,0.5,1.1,1.2,1.1c0.6,0,1.1-0.5,1.1-1.1v-41.9l14.1,42.2c0.1,0.3,0.3,0.4,0.4,0.5l0.1,0.1
				c0.2,0.1,0.3,0.2,0.6,0.2c0.2,0,0.3,0,0.3-0.1c0.1,0,0.1,0,0.1,0c0.1,0,0.2-0.1,0.2-0.1c0.1-0.1,0.2-0.1,0.2-0.2
				c0.1,0,0.1-0.1,0.2-0.2c0.1,0,0.1-0.1,0.1-0.2c0.1,0,0.1-0.1,0.1-0.2c0-0.1,0.1-0.2,0.1-0.3v-48
				C285.9,228.4,285.4,227.9,284.8,227.9z"/>
			<path d="M295.9,227.4c-0.5,0-0.9,0.3-0.9,0.7v40.3c0,0.4,0.4,0.7,0.9,0.7c0.6,0,1.1-0.3,1.1-0.7v-40.3
				C297,227.8,296.5,227.4,295.9,227.4z"/>
			<path d="M295.9,273.4c-0.5,0-0.9,0.2-0.9,0.6v3.7c0,0.4,0.4,0.7,0.9,0.7c0.6,0,1.1-0.3,1.1-0.7V274
				C297,273.6,296.5,273.4,295.9,273.4z"/>
		</g>
	</g>
	<g>
		<path class="st5" d="M301.4,320.5c0.1-5.1-0.3-10.2-0.4-15.3c-0.1-4.4,1.5-8.9-0.4-13.1c-1.7-3.8-7-4.2-10.5-2.8
			c-3,1.2-2.9,4.2-3.1,7c-0.3,5-0.2,9.7,0.8,14.6c0.5,2.5,0,2.4-2.2,2.4c-2.5,0-5,0.1-7.5,0.1c-20.7-0.5-41.3,0-62,0
			c-5.5,0-11,0.3-16.5,0.1c-5-0.1-10-0.3-15,0.2c-4.6,0.5-9.2-0.3-13.8,0.1c-4.7,0.4-9.3-0.1-14,0.1c-2,0.1-12.7,1.3-12.8-1.2
			c-0.1-4.7-0.4-9.5-0.3-14.2c0-3.6,0.4-8.3-3.7-9.8c-3.2,0-7.7-0.9-8.5,3.3c-1,5-0.7,10.6-0.4,15.7c0.3,4.7,0.2,9.3,0.2,14
			c0.1,4.9-4.1,22.5,4.7,22.5c2.9,0,6.3,0.1,8.3-2.4c2.1-2.6,1.4-6.9,1.3-10c-0.1-2.1-0.2-4.3-0.5-6.4c-0.1-1.2-1.1-4.2-0.1-5.1
			c1-1,4-0.2,5.2-0.2c2.1,0.1,4.3,0.1,6.4,0.1c17,0,34-0.5,51-0.3c21.1,0.3,42.3,0.2,63.4,1.4c5.2,0.3,10.4,0.2,15.6-0.4
			c1.1-0.1,1.9-0.3,1.9,1c0.1,2.4,0,4.8,0,7.2c0,3,0,6,0,9.1c0,1.3-0.3,3.1,0.5,4.2c1.7,2.4,6.8,2.2,9.1,1.2
			c3.4-1.5,3.5-4.5,3.4-7.8C301.4,330.7,301.3,325.6,301.4,320.5z"/>
		<path class="st5" d="M315.8,314.4c-0.1-2.9-0.3-5.8-0.4-8.7c-0.2-2.8,0.5-5.4,0.5-8.2c0-2.1-0.3-5.4-1.8-7
			c-1.7-1.8-3.9-1.7-6.2-1.7c0.8,0-1,0.4-0.9,0.3c-4.7,1.8-4.3,5.7-4.5,10.6c-0.3,5.8,0.8,11.5,1.1,17.2c0.3,6.1,0.2,12.1,0.2,18.2
			c0,2-0.6,5.1,0.8,6.7c1.4,1.6,4.3,2,6.4,2c6.6-0.2,4.9-7.9,4.8-12.6C315.6,325.6,315.9,320,315.8,314.4z"/>
		<path class="st5" d="M306.9,289.1c0.3-0.1,0.6-0.2,0.9-0.3C307.2,289,307,289.1,306.9,289.1z"/>
		<path class="st5" d="M325.6,327.1C325.2,329.3,325.6,326,325.6,327.1c0-4.2-0.6-8.4-0.6-12.7c0-4,0.9-9.2-0.2-13
			c-0.7-2.4-4.1-3.5-6.3-3c-2.3,0.5-1.9,3.9-1.9,5.6c0,9.5,0.2,19,0.6,28.5c0.1,2.9,4.1,6.5,6.9,4.1
			C326.2,334.8,325.1,329.5,325.6,327.1z"/>
		<path class="st5" d="M123.9,288.8c0.3,0.1,0.6,0.2,0.9,0.3C124.7,289,124.5,289,123.9,288.8z"/>
		<path class="st5" d="M129.5,299.5c-0.4-4.9,0-8.8-4.8-10.5c0.1,0.1-1.7-0.2-0.9-0.3c-2.3,0.1-4.5,0-6.1,1.9c-1.5,1.6-1.7,5-1.6,7
			c0.1,2.8,0.8,5.3,0.7,8.1c-0.1,2.9-0.2,5.8-0.2,8.7c0,5.6,0.4,11.2,0.5,16.9c0,4.8-1.4,12.5,5.2,12.5c2,0,4.9-0.5,6.3-2.2
			c1.4-1.6,0.7-4.8,0.6-6.8c-0.1-5.9-0.4-11.8-0.3-17.7C129.1,311.3,130,305.5,129.5,299.5z"/>
		<path class="st5" d="M114.8,300.2c-0.1-2.9-4.1-6.5-6.9-4.1c-2.1,1.8-1,7-1.5,9.4c0.5-2.2,0,1.1,0,0c0,4.2,0.6,8.4,0.6,12.7
			c0,4-0.9,9.2,0.2,13c0.7,2.4,4.1,3.5,6.3,3c2.3-0.5,1.9-3.9,1.9-5.6C115.4,319.2,115.2,309.7,114.8,300.2z"/>
	</g>
</g>
</svg>
